<svg xml:space="preserve" viewBox="38.175 191.6 362 117" version="1.1" xmlns:xlink="http://www.w3.org/1999/xlink" xmlns="http://www.w3.org/2000/svg" style="max-height: 500px" width="362" height="117">
<desc>Created with Fabric.js 3.6.3</desc>
<defs>
</defs>
<g transform="matrix(0.21034142193586783 -5.152e-17 5.152e-17 0.21034142193586783 96.91868797593466 250.58535548396696)">
<path stroke-linecap="round" d="m 239.32338 158.15557 c -78.60067 0 -142.108912 63.50635 -142.108912 142.10701 l 0 215.78407 c 0 78.60067 63.508242 142.10892 142.108912 142.10892 l 215.78217 0 c 78.60067 0 142.10891 -63.50825 142.10891 -142.10892 l 0 -215.78407 c 0 -78.60066 -63.50824 -142.10701 -142.10891 -142.10701 l -215.78217 0 z" transform="translate(-347.214464, -408.15557)" style="stroke: none; stroke-width: 0; stroke-dasharray: none; stroke-linecap: round; stroke-dashoffset: 0; stroke-linejoin: round; stroke-miterlimit: 4; fill: rgb(0,55,125); fill-rule: nonzero; opacity: 1;"/>
</g>
<g transform="matrix(0.9012696260364448 -2.2075e-16 2.2075e-16 0.9012696260364448 96.91868797593469 250.58535548396696)">
<path stroke-linecap="round" d="M 75.781 5 H 24.219 C 13.608 5 5 13.605 5 24.219 v 51.563 C 5 86.395 13.608 95 24.219 95 h 51.563 C 86.398 95 95 86.395 95 75.781 V 24.219 C 95 13.605 86.398 5 75.781 5 z" transform="translate(-50, -50)" style="stroke: none; stroke-width: 0; stroke-dasharray: none; stroke-linecap: butt; stroke-dashoffset: 0; stroke-linejoin: miter; stroke-miterlimit: 4; fill: rgb(255,209,0); fill-rule: nonzero; opacity: 0.85;"/>
</g>
<g transform="matrix(0.9847406629001881 0 0 0.9847406629001881 96.91868797593469 250.58535548396696)">
<path stroke-linecap="round" d="m 55.538322 990.35099 a 2.0550817 2.0550817 0 0 0 -1.6268 1.4554 l -7.192 22.43241 l -5.651 -13.3568 a 2.0550817 2.0550817 0 0 0 -3.6816 -0.2575 l -4.3666 7.62 l -5.4797 0 a 2.0550817 2.0550817 0 1 0 0 4.1098 l 6.6784 0 a 2.0550817 2.0550817 0 0 0 1.798 -1.0274 l 2.9111 -5.0514 l 6.1646 14.7266 a 2.0550817 2.0550817 0 0 0 3.8529 -0.1699 l 6.9352 -21.74751 l 5.5653 16.78151 a 2.0550817 2.0550817 0 0 0 3.7672 0.3425 l 3.9386 -6.8496 l 6.1646 0 a 2.0550817 2.0550817 0 1 0 0 -4.1098 l -7.3633 0 a 2.0550817 2.0550817 0 0 0 -1.798 1.0275 l -2.2261 3.9385 l -6.0791 -18.49381 a 2.0550817 2.0550817 0 0 0 -2.3117 -1.37 z" transform="translate(-51.428571999999996, -1006.290648053562)" style="stroke: none; stroke-width: 0; stroke-dasharray: none; stroke-linecap: butt; stroke-dashoffset: 0; stroke-linejoin: miter; stroke-miterlimit: 4; fill: rgb(0,55,125); fill-rule: nonzero; opacity: 1;"/>
</g>
<g style="" transform="matrix(1 0 0 1 294.50788005162264 242.90939440865017)"><path d="M-125.98-9.46L-123.94-9.46L-121.45-7.98Q-118.95-9.21-116.15-9.84Q-113.35-10.48-110.10-10.48L-110.10-10.48Q-106.58-10.48-104.17-9.71Q-101.75-8.95-100.12-7.63L-100.12-7.63Q-97.57-9.05-94.77-9.77Q-91.98-10.48-88.62-10.48L-88.62-10.48Q-84.59-10.48-81.92-9.49Q-79.25-8.49-77.70-6.79Q-76.15-5.08-75.51-2.74Q-74.87-0.40-74.87 2.25L-74.87 2.25L-74.87 15.99L-83.02 15.99L-83.02 3.26Q-83.02 2.04-83.12 0.90Q-83.22-0.25-83.75-1.14Q-84.29-2.03-85.46-2.56Q-86.63-3.10-88.77-3.10L-88.77-3.10Q-91.01-3.10-92.97-2.77Q-94.93-2.44-96.76-1.77L-96.76-1.77Q-96.51-0.81-96.43 0.21Q-96.35 1.23-96.35 2.25L-96.35 2.25L-96.35 15.99L-104.50 15.99L-104.50 3.26Q-104.50 2.04-104.60 0.90Q-104.70-0.25-105.23-1.14Q-105.77-2.03-106.94-2.56Q-108.11-3.10-110.25-3.10L-110.25-3.10Q-114.42-3.10-117.83-1.88L-117.83-1.88L-117.83 15.99L-125.98 15.99L-125.98-9.46Z" opacity="1" fill="#FFD100"/><path d="M-33.64-6.92L-33.64-4.88Q-33.64-2.33-34.28-0.12Q-34.92 2.09-36.44 3.75Q-37.97 5.40-40.59 6.37Q-43.21 7.34-47.18 7.34L-47.18 7.34L-48.61 7.34Q-51.36 7.34-53.98 7.29Q-56.60 7.23-59.09 6.83L-59.09 6.83L-59.09 15.99L-68.26 15.99L-68.26-18.11Q-63.88-18.62-59.07-18.88Q-54.26-19.13-49.63-19.13L-49.63-19.13L-48.20-19.13Q-43.93-19.13-41.13-18.16Q-38.33-17.20-36.65-15.54Q-34.97-13.89-34.31-11.65Q-33.64-9.41-33.64-6.92L-33.64-6.92ZM-50.03-0.81L-50.03-0.81Q-47.34-0.81-45.86-1.19Q-44.38-1.57-43.70-2.26Q-43.01-2.95-42.91-3.86Q-42.81-4.78-42.81-5.90L-42.81-5.90Q-42.81-7.02-42.91-7.96Q-43.01-8.90-43.67-9.56Q-44.33-10.22-45.71-10.61Q-47.08-10.99-49.68-10.99L-49.68-10.99Q-51.31-10.99-53.93-10.89Q-56.55-10.78-59.09-10.53L-59.09-10.53L-59.09-1.27Q-56.70-0.96-54.56-0.88Q-52.43-0.81-50.03-0.81Z" opacity="1" fill="#FFD100"/><path d="M-12.57 17.01L-14.00 17.01Q-18.12 17.01-20.84 16.02Q-23.57 15.02-25.17 13.29Q-26.77 11.56-27.41 9.25Q-28.04 6.93-28.04 4.28L-28.04 4.28L-28.04-9.46L-19.90-9.46L-19.90 3.26Q-19.90 4.49-19.80 5.66Q-19.70 6.83-19.09 7.69Q-18.48 8.56-17.13 9.09Q-15.78 9.63-13.28 9.63L-13.28 9.63Q-10.79 9.63-9.44 9.09Q-8.09 8.56-7.48 7.69Q-6.87 6.83-6.77 5.66Q-6.67 4.49-6.67 3.26L-6.67 3.26L-6.67-9.46L1.48-9.46L1.48 4.28Q1.48 6.93 0.82 9.25Q0.15 11.56-1.45 13.29Q-3.05 15.02-5.75 16.02Q-8.45 17.01-12.57 17.01L-12.57 17.01Z" opacity="1" fill="#FFD100"/><path d="M8.09-22.19L10.13-22.19L16.24-18.62L16.24 15.99L8.09 15.99L8.09-22.19Z" opacity="1" fill="#FFD100"/><path d="M36.45 10.14L36.45 10.14Q38.38 10.14 39.50 9.98Q40.62 9.83 41.18 9.60Q41.74 9.37 41.89 9.09Q42.04 8.81 42.04 8.51L42.04 8.51Q42.04 7.34 40.64 7.08Q39.25 6.83 36.19 6.73L36.19 6.73Q35.17 6.73 33.77 6.62Q32.37 6.52 30.87 6.27Q29.37 6.01 27.89 5.50Q26.42 5.00 25.27 4.08Q24.13 3.16 23.42 1.79Q22.70 0.41 22.70-1.57L22.70-1.57L22.70-2.08Q22.70-3.76 23.34-5.26Q23.98-6.76 25.55-7.93Q27.13-9.10 29.75-9.79Q32.37-10.48 36.34-10.48L36.34-10.48L37.77-10.48Q40.67-10.48 43.42-10.15Q46.17-9.82 48.76-9.21L48.76-9.21L48.76-2.13Q45.71-2.84 42.71-3.23Q39.70-3.61 36.50-3.61L36.50-3.61Q34.51-3.61 33.39-3.45Q32.27-3.30 31.71-3.05Q31.15-2.79 31.00-2.51Q30.85-2.23 30.85-1.93L30.85-1.93Q30.85-0.86 32.22-0.58Q33.60-0.30 36.70-0.20L36.70-0.20Q37.67-0.15 39.07-0.09Q40.47-0.04 41.97 0.24Q43.47 0.52 44.95 1.03Q46.42 1.53 47.59 2.45Q48.76 3.37 49.48 4.74Q50.19 6.12 50.19 8.10L50.19 8.10L50.19 8.61Q50.19 10.29 49.55 11.79Q48.92 13.29 47.34 14.46Q45.76 15.63 43.14 16.32Q40.52 17.01 36.55 17.01L36.55 17.01L35.12 17.01Q31.81 17.01 28.71 16.68Q25.60 16.35 22.60 15.74L22.60 15.74L22.60 8.66Q25.96 9.37 29.55 9.75Q33.14 10.14 36.45 10.14Z" opacity="1" fill="#FFD100"/><path d="M71.57 17.01L70.60 17.01Q66.32 17.01 63.52 16.02Q60.72 15.02 59.05 13.29Q57.37 11.56 56.70 9.25Q56.04 6.93 56.04 4.28L56.04 4.28L56.04 2.25Q56.04-0.40 56.70-2.72Q57.37-5.03 59.05-6.76Q60.72-8.49 63.52-9.49Q66.32-10.48 70.60-10.48L70.60-10.48L72.02-10.48Q76.35-10.48 79.10-9.84Q81.85-9.21 83.38-8.09Q84.90-6.97 85.46-5.49Q86.02-4.01 86.02-2.33L86.02-2.33L86.02-1.83Q86.02-0.30 85.64 1.08Q85.26 2.45 83.83 3.52Q82.41 4.59 79.63 5.20Q76.86 5.81 72.08 5.81L72.08 5.81Q69.79 5.81 67.85 5.61Q65.92 5.40 64.19 4.89L64.19 4.89Q64.24 5.96 64.54 6.85Q64.85 7.74 65.69 8.35Q66.53 8.97 68.05 9.30Q69.58 9.63 72.13 9.63L72.13 9.63Q73.35 9.63 74.85 9.53Q76.35 9.42 77.95 9.25Q79.56 9.07 81.11 8.79Q82.66 8.51 83.99 8.10L83.99 8.10L83.99 15.74Q82.66 16.04 81.11 16.27Q79.56 16.50 77.90 16.68Q76.25 16.86 74.62 16.93Q72.99 17.01 71.57 17.01L71.57 17.01ZM72.08-4.12L72.08-4.12Q70.04-4.12 68.67-3.89Q67.29-3.66 66.43-3.20Q65.56-2.74 65.10-2.08Q64.64-1.42 64.44-0.55L64.44-0.55Q65.92-0.15 67.62 0.03Q69.33 0.21 71.57 0.21L71.57 0.21Q73.81 0.21 75.08 0.03Q76.35-0.15 76.96-0.43Q77.57-0.71 77.73-1.04Q77.88-1.37 77.88-1.72L77.88-1.72Q77.88-2.08 77.75-2.51Q77.62-2.95 77.04-3.30Q76.45-3.66 75.28-3.89Q74.11-4.12 72.08-4.12Z" opacity="1" fill="#FFD100"/></g><g style="" transform="matrix(1 0 0 1 271.3478976941335 285.68208322595046)"><path d="M-94.54-2.45L-94.54-2.45Q-94.54-1.38-94.78-0.61Q-95.02 0.17-95.54 0.67Q-96.06 1.17-96.87 1.42Q-97.67 1.66-98.80 1.66L-98.80 1.66L-100.72 1.66L-100.72 5.50L-102.71 5.50L-102.71-6.33L-98.73-6.33Q-97.72-6.33-96.94-6.12Q-96.16-5.91-95.63-5.45Q-95.09-4.99-94.82-4.25Q-94.54-3.51-94.54-2.45ZM-96.61-2.43L-96.61-2.43Q-96.61-3.07-96.79-3.49Q-96.96-3.90-97.30-4.14Q-97.63-4.38-98.12-4.47Q-98.61-4.57-99.25-4.57L-99.25-4.57L-100.72-4.57L-100.72-0.10L-99.47-0.10Q-98.72-0.10-98.17-0.18Q-97.63-0.25-97.28-0.50Q-96.94-0.74-96.78-1.20Q-96.61-1.66-96.61-2.43Z" opacity="1" fill="#00377D"/><path d="M-86.94-3.42L-87.31-1.66Q-87.45-1.71-87.66-1.76Q-87.88-1.80-88.11-1.80L-88.11-1.80Q-88.49-1.80-88.82-1.70Q-89.15-1.59-89.46-1.42Q-89.76-1.24-90.04-1.01Q-90.32-0.77-90.60-0.50L-90.60-0.50L-90.60 5.50L-92.44 5.50L-92.44-3.47L-90.60-3.47L-90.60-2.10Q-90.31-2.41-90.00-2.68Q-89.69-2.95-89.35-3.16Q-89.02-3.36-88.65-3.48Q-88.28-3.60-87.87-3.60L-87.87-3.60Q-87.56-3.60-87.33-3.56Q-87.10-3.51-86.94-3.42L-86.94-3.42Z" opacity="1" fill="#00377D"/><path d="M-77.82 1.04L-77.82 1.04Q-77.82 2.13-78.05 3.00Q-78.28 3.87-78.78 4.49Q-79.28 5.10-80.06 5.43Q-80.84 5.76-81.93 5.76L-81.93 5.76Q-83.02 5.76-83.80 5.43Q-84.59 5.10-85.09 4.48Q-85.59 3.87-85.83 2.99Q-86.06 2.12-86.06 1.04L-86.06 1.04Q-86.06-0.07-85.82-0.95Q-85.58-1.83-85.08-2.45Q-84.58-3.06-83.80-3.39Q-83.02-3.72-81.93-3.72L-81.93-3.72Q-80.84-3.72-80.06-3.39Q-79.28-3.06-78.78-2.45Q-78.28-1.83-78.05-0.95Q-77.82-0.07-77.82 1.04ZM-79.72 1.04L-79.72 1.04Q-79.72-0.56-80.24-1.34Q-80.75-2.12-81.93-2.12L-81.93-2.12Q-83.10-2.12-83.63-1.34Q-84.16-0.56-84.16 1.04L-84.16 1.04Q-84.16 2.59-83.64 3.38Q-83.11 4.16-81.93 4.16L-81.93 4.16Q-80.77 4.16-80.25 3.38Q-79.72 2.59-79.72 1.04Z" opacity="1" fill="#00377D"/><path d="M-67.60 0.95L-67.60 0.95Q-67.60 1.89-67.81 2.76Q-68.01 3.63-68.45 4.30Q-68.89 4.97-69.57 5.37Q-70.25 5.76-71.21 5.76L-71.21 5.76Q-71.94 5.76-72.57 5.51Q-73.20 5.26-73.73 4.80L-73.73 4.80L-73.73 8.87L-75.57 8.87L-75.57-3.47L-73.82-3.47L-73.82-2.57Q-73.26-3.08-72.56-3.40Q-71.87-3.72-71.04-3.72L-71.04-3.72Q-70.14-3.72-69.50-3.38Q-68.85-3.04-68.43-2.42Q-68.01-1.81-67.80-0.95Q-67.60-0.08-67.60 0.95ZM-69.50 0.99L-69.50 0.99Q-69.50-0.53-70.00-1.31Q-70.50-2.10-71.47-2.10L-71.47-2.10Q-71.78-2.10-72.09-2.02Q-72.41-1.94-72.70-1.80Q-72.99-1.65-73.25-1.47Q-73.52-1.29-73.73-1.08L-73.73-1.08L-73.73 3.26Q-73.53 3.44-73.28 3.60Q-73.04 3.75-72.76 3.87Q-72.49 3.99-72.20 4.06Q-71.91 4.13-71.61 4.13L-71.61 4.13Q-71.18 4.13-70.80 3.95Q-70.42 3.77-70.13 3.39Q-69.84 3.01-69.67 2.42Q-69.50 1.82-69.50 0.99Z" opacity="1" fill="#00377D"/><path d="M-57.90 5.50L-59.73 5.50L-59.73 4.26Q-60.03 4.56-60.39 4.83Q-60.74 5.10-61.14 5.31Q-61.54 5.51-61.96 5.64Q-62.38 5.76-62.81 5.76L-62.81 5.76Q-63.56 5.76-64.07 5.55Q-64.57 5.34-64.87 4.92Q-65.18 4.51-65.31 3.90Q-65.43 3.30-65.43 2.52L-65.43 2.52L-65.43-3.47L-63.60-3.47L-63.60 1.64Q-63.60 2.32-63.55 2.78Q-63.51 3.25-63.37 3.54Q-63.24 3.82-62.98 3.95Q-62.72 4.08-62.31 4.08L-62.31 4.08Q-62.02 4.08-61.70 3.97Q-61.38 3.86-61.05 3.67Q-60.71 3.48-60.37 3.23Q-60.04 2.98-59.73 2.69L-59.73 2.69L-59.73-3.47L-57.90-3.47L-57.90 5.50Z" opacity="1" fill="#00377D"/><path d="M-53.33 5.50L-55.16 5.50L-55.16-7.23L-53.33-7.23L-53.33 5.50Z" opacity="1" fill="#00377D"/><path d="M-44.12 3.01L-44.12 3.01Q-44.12 3.75-44.41 4.28Q-44.69 4.80-45.18 5.13Q-45.66 5.46-46.29 5.61Q-46.93 5.76-47.62 5.76L-47.62 5.76Q-48.32 5.76-48.89 5.64Q-49.45 5.52-49.90 5.31Q-50.34 5.10-50.66 4.81Q-50.98 4.52-51.19 4.18L-51.19 4.18L-49.79 3.24Q-49.42 3.78-48.88 4.01Q-48.34 4.24-47.67 4.24L-47.67 4.24Q-47.34 4.24-47.02 4.19Q-46.70 4.14-46.46 4.01Q-46.22 3.87-46.07 3.65Q-45.92 3.43-45.92 3.10L-45.92 3.10Q-45.92 2.84-46.03 2.66Q-46.14 2.48-46.38 2.34Q-46.62 2.20-47.00 2.08Q-47.38 1.95-47.92 1.82L-47.92 1.82Q-48.52 1.67-49.08 1.47Q-49.63 1.28-50.06 0.96Q-50.48 0.64-50.74 0.15Q-50.99-0.33-50.99-1.05L-50.99-1.05Q-50.99-1.62-50.78-2.11Q-50.57-2.59-50.13-2.95Q-49.70-3.31-49.07-3.52Q-48.43-3.72-47.58-3.72L-47.58-3.72Q-46.99-3.72-46.48-3.61Q-45.96-3.50-45.54-3.30Q-45.11-3.09-44.79-2.80Q-44.46-2.52-44.26-2.17L-44.26-2.17L-45.66-1.22Q-45.79-1.41-45.97-1.59Q-46.15-1.77-46.39-1.90Q-46.63-2.04-46.94-2.12Q-47.24-2.20-47.62-2.20L-47.62-2.20Q-48.34-2.20-48.76-1.92Q-49.19-1.65-49.19-1.12L-49.19-1.12Q-49.19-0.87-49.10-0.70Q-49.01-0.53-48.81-0.39Q-48.61-0.25-48.28-0.15Q-47.96-0.04-47.50 0.07L-47.50 0.07Q-46.72 0.27-46.09 0.49Q-45.46 0.71-45.03 1.04Q-44.59 1.36-44.36 1.84Q-44.12 2.31-44.12 3.01Z" opacity="1" fill="#00377D"/><path d="M-34.65 1.40L-40.54 1.40Q-40.53 2.08-40.40 2.60Q-40.27 3.11-39.99 3.46Q-39.70 3.81-39.26 3.98Q-38.81 4.16-38.15 4.16L-38.15 4.16Q-37.53 4.16-37.06 3.96Q-36.59 3.75-36.18 3.24L-36.18 3.24L-34.77 4.20Q-35.03 4.58-35.35 4.87Q-35.66 5.16-36.08 5.36Q-36.50 5.56-37.03 5.66Q-37.57 5.76-38.25 5.76L-38.25 5.76Q-40.40 5.76-41.42 4.58Q-42.44 3.40-42.44 1.09L-42.44 1.09Q-42.44 0.00-42.22-0.88Q-42.00-1.77-41.52-2.40Q-41.04-3.03-40.26-3.38Q-39.48-3.72-38.35-3.72L-38.35-3.72Q-37.35-3.72-36.65-3.42Q-35.94-3.12-35.50-2.58Q-35.06-2.03-34.85-1.26Q-34.65-0.49-34.65 0.44L-34.65 0.44L-34.65 1.40ZM-40.51 0.05L-36.47 0.05Q-36.47-1.07-36.94-1.65Q-37.41-2.24-38.41-2.24L-38.41-2.24Q-38.93-2.24-39.29-2.09Q-39.65-1.94-39.90-1.65Q-40.14-1.36-40.29-0.93Q-40.43-0.50-40.51 0.05L-40.51 0.05Z" opacity="1" fill="#00377D"/><path d="M-26.46 5.50L-33.23 5.50L-33.23 4.13L-28.80-1.97L-33.13-1.97L-33.13-3.47L-26.60-3.47L-26.60-2.13L-31.04 4.01L-26.46 4.01L-26.46 5.50Z" opacity="1" fill="#00377D"/><path d="" opacity="1" fill="#00377D"/><path d="M-12.98-3.47L-16.17 5.50L-17.92 5.50L-21.07-3.47L-19.16-3.47L-16.99 3.01L-14.86-3.47L-12.98-3.47Z" opacity="1" fill="#00377D"/><path d="M-3.60 1.04L-3.60 1.04Q-3.60 2.13-3.84 3.00Q-4.07 3.87-4.57 4.49Q-5.07 5.10-5.85 5.43Q-6.63 5.76-7.71 5.76L-7.71 5.76Q-8.81 5.76-9.59 5.43Q-10.38 5.10-10.88 4.48Q-11.38 3.87-11.61 2.99Q-11.85 2.12-11.85 1.04L-11.85 1.04Q-11.85-0.07-11.61-0.95Q-11.37-1.83-10.87-2.45Q-10.37-3.06-9.59-3.39Q-8.81-3.72-7.71-3.72L-7.71-3.72Q-6.63-3.72-5.85-3.39Q-5.07-3.06-4.57-2.45Q-4.07-1.83-3.84-0.95Q-3.60-0.07-3.60 1.04ZM-5.51 1.04L-5.51 1.04Q-5.51-0.56-6.02-1.34Q-6.54-2.12-7.71-2.12L-7.71-2.12Q-8.88-2.12-9.42-1.34Q-9.95-0.56-9.95 1.04L-9.95 1.04Q-9.95 2.59-9.43 3.38Q-8.90 4.16-7.71 4.16L-7.71 4.16Q-6.56 4.16-6.03 3.38Q-5.51 2.59-5.51 1.04Z" opacity="1" fill="#00377D"/><path d="M2.97 3.99L3.35 5.50Q2.97 5.62 2.49 5.69Q2.00 5.76 1.57 5.76L1.57 5.76Q0.83 5.76 0.32 5.59Q-0.20 5.41-0.53 5.05Q-0.86 4.69-1.01 4.12Q-1.17 3.56-1.17 2.79L-1.17 2.79L-1.17-1.97L-2.37-1.97L-2.37-3.47L-1.17-3.47L-1.17-5.96L0.67-5.96L0.67-3.47L2.84-3.47L2.84-1.97L0.67-1.97L0.67 2.51Q0.67 2.99 0.73 3.31Q0.78 3.64 0.91 3.85Q1.04 4.05 1.25 4.15Q1.46 4.24 1.76 4.24L1.76 4.24Q2.05 4.24 2.39 4.17Q2.72 4.10 2.97 3.99L2.97 3.99Z" opacity="1" fill="#00377D"/><path d="M10.40-3.42L10.04-1.66Q9.90-1.71 9.68-1.76Q9.46-1.80 9.23-1.80L9.23-1.80Q8.86-1.80 8.52-1.70Q8.19-1.59 7.89-1.42Q7.58-1.24 7.30-1.01Q7.02-0.77 6.75-0.50L6.75-0.50L6.75 5.50L4.91 5.50L4.91-3.47L6.75-3.47L6.75-2.10Q7.04-2.41 7.34-2.68Q7.65-2.95 7.99-3.16Q8.33-3.36 8.69-3.48Q9.06-3.60 9.47-3.60L9.47-3.60Q9.79-3.60 10.01-3.56Q10.24-3.51 10.40-3.42L10.40-3.42Z" opacity="1" fill="#00377D"/><path d="M19.08 1.40L13.18 1.40Q13.19 2.08 13.32 2.60Q13.45 3.11 13.74 3.46Q14.02 3.81 14.47 3.98Q14.91 4.16 15.57 4.16L15.57 4.16Q16.19 4.16 16.66 3.96Q17.14 3.75 17.54 3.24L17.54 3.24L18.95 4.20Q18.69 4.58 18.38 4.87Q18.06 5.16 17.64 5.36Q17.22 5.56 16.69 5.66Q16.15 5.76 15.47 5.76L15.47 5.76Q13.33 5.76 12.30 4.58Q11.28 3.40 11.28 1.09L11.28 1.09Q11.28 0.00 11.50-0.88Q11.72-1.77 12.20-2.40Q12.68-3.03 13.46-3.38Q14.24-3.72 15.37-3.72L15.37-3.72Q16.37-3.72 17.07-3.42Q17.78-3.12 18.22-2.58Q18.67-2.03 18.87-1.26Q19.08-0.49 19.08 0.44L19.08 0.44L19.08 1.40ZM13.21 0.05L17.26 0.05Q17.26-1.07 16.79-1.65Q16.32-2.24 15.31-2.24L15.31-2.24Q14.79-2.24 14.43-2.09Q14.07-1.94 13.83-1.65Q13.58-1.36 13.44-0.93Q13.29-0.50 13.21 0.05L13.21 0.05Z" opacity="1" fill="#00377D"/><path d="" opacity="1" fill="#00377D"/><path d="M33.67 0.95L33.67 0.95Q33.67 1.92 33.47 2.79Q33.28 3.66 32.85 4.32Q32.42 4.98 31.75 5.37Q31.07 5.76 30.12 5.76L30.12 5.76Q29.73 5.76 29.35 5.68Q28.97 5.59 28.62 5.45Q28.27 5.30 27.96 5.11Q27.65 4.92 27.42 4.71L27.42 4.71L27.28 5.50L25.71 5.50L25.71-7.23L27.54-7.23L27.54-2.65Q28.07-3.12 28.76-3.42Q29.44-3.72 30.24-3.72L30.24-3.72Q31.14-3.72 31.79-3.39Q32.44-3.06 32.86-2.45Q33.28-1.83 33.47-0.97Q33.67-0.11 33.67 0.95ZM31.77 0.99L31.77 0.99Q31.77-0.55 31.30-1.33Q30.82-2.10 29.78-2.10L29.78-2.10Q29.48-2.10 29.18-2.02Q28.87-1.94 28.58-1.80Q28.30-1.65 28.03-1.47Q27.77-1.29 27.54-1.08L27.54-1.08L27.54 3.26Q27.75 3.44 28.01 3.60Q28.26 3.75 28.54 3.87Q28.83 3.99 29.12 4.06Q29.41 4.13 29.68 4.13L29.68 4.13Q30.12 4.13 30.50 3.96Q30.88 3.79 31.17 3.41Q31.45 3.04 31.61 2.44Q31.77 1.84 31.77 0.99Z" opacity="1" fill="#00377D"/><path d="M43.38 5.50L41.54 5.50L41.54 4.26Q41.24 4.56 40.89 4.83Q40.53 5.10 40.13 5.31Q39.74 5.51 39.31 5.64Q38.89 5.76 38.46 5.76L38.46 5.76Q37.71 5.76 37.21 5.55Q36.70 5.34 36.40 4.92Q36.10 4.51 35.97 3.90Q35.84 3.30 35.84 2.52L35.84 2.52L35.84-3.47L37.68-3.47L37.68 1.64Q37.68 2.32 37.72 2.78Q37.76 3.25 37.90 3.54Q38.04 3.82 38.29 3.95Q38.55 4.08 38.97 4.08L38.97 4.08Q39.25 4.08 39.57 3.97Q39.89 3.86 40.23 3.67Q40.57 3.48 40.90 3.23Q41.23 2.98 41.54 2.69L41.54 2.69L41.54-3.47L43.38-3.47L43.38 5.50Z" opacity="1" fill="#00377D"/><path d="M52.55 3.01L52.55 3.01Q52.55 3.75 52.26 4.28Q51.97 4.80 51.49 5.13Q51.01 5.46 50.38 5.61Q49.74 5.76 49.05 5.76L49.05 5.76Q48.35 5.76 47.78 5.64Q47.21 5.52 46.77 5.31Q46.33 5.10 46.01 4.81Q45.68 4.52 45.48 4.18L45.48 4.18L46.88 3.24Q47.25 3.78 47.79 4.01Q48.33 4.24 49.00 4.24L49.00 4.24Q49.33 4.24 49.65 4.19Q49.97 4.14 50.21 4.01Q50.45 3.87 50.60 3.65Q50.75 3.43 50.75 3.10L50.75 3.10Q50.75 2.84 50.64 2.66Q50.53 2.48 50.29 2.34Q50.05 2.20 49.67 2.08Q49.29 1.95 48.75 1.82L48.75 1.82Q48.15 1.67 47.59 1.47Q47.03 1.28 46.61 0.96Q46.19 0.64 45.93 0.15Q45.68-0.33 45.68-1.05L45.68-1.05Q45.68-1.62 45.89-2.11Q46.10-2.59 46.53-2.95Q46.97-3.31 47.60-3.52Q48.24-3.72 49.09-3.72L49.09-3.72Q49.68-3.72 50.19-3.61Q50.71-3.50 51.13-3.30Q51.56-3.09 51.88-2.80Q52.20-2.52 52.41-2.17L52.41-2.17L51.01-1.22Q50.88-1.41 50.70-1.59Q50.52-1.77 50.28-1.90Q50.03-2.04 49.73-2.12Q49.43-2.20 49.05-2.20L49.05-2.20Q48.33-2.20 47.91-1.92Q47.48-1.65 47.48-1.12L47.48-1.12Q47.48-0.87 47.57-0.70Q47.66-0.53 47.86-0.39Q48.06-0.25 48.38-0.15Q48.71-0.04 49.17 0.07L49.17 0.07Q49.95 0.27 50.58 0.49Q51.20 0.71 51.64 1.04Q52.08 1.36 52.31 1.84Q52.55 2.31 52.55 3.01Z" opacity="1" fill="#00377D"/><path d="M56.70-5.82L56.70-5.82Q56.70-5.26 56.43-5.04Q56.16-4.82 55.60-4.82L55.60-4.82Q54.98-4.82 54.75-5.08Q54.51-5.34 54.51-5.82L54.51-5.82Q54.51-6.35 54.76-6.59Q55.01-6.82 55.60-6.82L55.60-6.82Q56.19-6.82 56.44-6.59Q56.70-6.36 56.70-5.82ZM56.53 5.50L54.69 5.50L54.69-3.47L56.53-3.47L56.53 5.50Z" opacity="1" fill="#00377D"/><path d="M66.76 5.50L64.92 5.50L64.92 0.39Q64.92-0.28 64.88-0.74Q64.83-1.21 64.69-1.50Q64.55-1.79 64.30-1.92Q64.04-2.05 63.61-2.05L63.61-2.05Q63.33-2.05 63.01-1.94Q62.69-1.83 62.36-1.63Q62.03-1.44 61.70-1.19Q61.36-0.94 61.06-0.66L61.06-0.66L61.06 5.50L59.22 5.50L59.22-3.47L61.06-3.47L61.06-2.22Q61.35-2.51 61.71-2.78Q62.07-3.06 62.46-3.27Q62.86-3.47 63.28-3.60Q63.71-3.72 64.13-3.72L64.13-3.72Q64.89-3.72 65.39-3.51Q65.89-3.30 66.20-2.88Q66.50-2.47 66.63-1.86Q66.76-1.26 66.76-0.48L66.76-0.48L66.76 5.50Z" opacity="1" fill="#00377D"/><path d="M76.72 1.40L70.82 1.40Q70.83 2.08 70.96 2.60Q71.10 3.11 71.38 3.46Q71.66 3.81 72.11 3.98Q72.56 4.16 73.22 4.16L73.22 4.16Q73.83 4.16 74.31 3.96Q74.78 3.75 75.18 3.24L75.18 3.24L76.59 4.20Q76.34 4.58 76.02 4.87Q75.70 5.16 75.28 5.36Q74.87 5.56 74.33 5.66Q73.80 5.76 73.11 5.76L73.11 5.76Q70.97 5.76 69.95 4.58Q68.93 3.40 68.93 1.09L68.93 1.09Q68.93 0.00 69.14-0.88Q69.36-1.77 69.85-2.40Q70.33-3.03 71.11-3.38Q71.88-3.72 73.01-3.72L73.01-3.72Q74.01-3.72 74.72-3.42Q75.42-3.12 75.87-2.58Q76.31-2.03 76.51-1.26Q76.72-0.49 76.72 0.44L76.72 0.44L76.72 1.40ZM70.86 0.05L74.90 0.05Q74.90-1.07 74.43-1.65Q73.96-2.24 72.95-2.24L72.95-2.24Q72.44-2.24 72.08-2.09Q71.71-1.94 71.47-1.65Q71.23-1.36 71.08-0.93Q70.93-0.50 70.86 0.05L70.86 0.05Z" opacity="1" fill="#00377D"/><path d="M85.36 3.01L85.36 3.01Q85.36 3.75 85.07 4.28Q84.79 4.80 84.30 5.13Q83.82 5.46 83.19 5.61Q82.56 5.76 81.86 5.76L81.86 5.76Q81.16 5.76 80.60 5.64Q80.03 5.52 79.58 5.31Q79.14 5.10 78.82 4.81Q78.50 4.52 78.29 4.18L78.29 4.18L79.69 3.24Q80.06 3.78 80.60 4.01Q81.14 4.24 81.81 4.24L81.81 4.24Q82.15 4.24 82.46 4.19Q82.78 4.14 83.02 4.01Q83.27 3.87 83.41 3.65Q83.56 3.43 83.56 3.10L83.56 3.10Q83.56 2.84 83.45 2.66Q83.34 2.48 83.10 2.34Q82.86 2.20 82.48 2.08Q82.10 1.95 81.56 1.82L81.56 1.82Q80.96 1.67 80.40 1.47Q79.85 1.28 79.42 0.96Q79.00 0.64 78.75 0.15Q78.49-0.33 78.49-1.05L78.49-1.05Q78.49-1.62 78.70-2.11Q78.92-2.59 79.35-2.95Q79.78-3.31 80.42-3.52Q81.05-3.72 81.90-3.72L81.90-3.72Q82.49-3.72 83.00-3.61Q83.52-3.50 83.94-3.30Q84.37-3.09 84.69-2.80Q85.02-2.52 85.22-2.17L85.22-2.17L83.82-1.22Q83.69-1.41 83.51-1.59Q83.33-1.77 83.09-1.90Q82.85-2.04 82.54-2.12Q82.24-2.20 81.86-2.20L81.86-2.20Q81.15-2.20 80.72-1.92Q80.29-1.65 80.29-1.12L80.29-1.12Q80.29-0.87 80.38-0.70Q80.47-0.53 80.67-0.39Q80.87-0.25 81.20-0.15Q81.52-0.04 81.98 0.07L81.98 0.07Q82.76 0.27 83.39 0.49Q84.02 0.71 84.45 1.04Q84.89 1.36 85.12 1.84Q85.36 2.31 85.36 3.01Z" opacity="1" fill="#00377D"/><path d="M93.97 3.01L93.97 3.01Q93.97 3.75 93.69 4.28Q93.40 4.80 92.92 5.13Q92.43 5.46 91.80 5.61Q91.17 5.76 90.48 5.76L90.48 5.76Q89.78 5.76 89.21 5.64Q88.64 5.52 88.20 5.31Q87.75 5.10 87.43 4.81Q87.11 4.52 86.91 4.18L86.91 4.18L88.31 3.24Q88.67 3.78 89.21 4.01Q89.75 4.24 90.43 4.24L90.43 4.24Q90.76 4.24 91.08 4.19Q91.39 4.14 91.64 4.01Q91.88 3.87 92.03 3.65Q92.18 3.43 92.18 3.10L92.18 3.10Q92.18 2.84 92.07 2.66Q91.96 2.48 91.72 2.34Q91.48 2.20 91.10 2.08Q90.72 1.95 90.18 1.82L90.18 1.82Q89.57 1.67 89.02 1.47Q88.46 1.28 88.04 0.96Q87.61 0.64 87.36 0.15Q87.10-0.33 87.10-1.05L87.10-1.05Q87.10-1.62 87.32-2.11Q87.53-2.59 87.96-2.95Q88.39-3.31 89.03-3.52Q89.67-3.72 90.51-3.72L90.51-3.72Q91.10-3.72 91.62-3.61Q92.13-3.50 92.56-3.30Q92.98-3.09 93.31-2.80Q93.63-2.52 93.84-2.17L93.84-2.17L92.43-1.22Q92.31-1.41 92.13-1.59Q91.95-1.77 91.70-1.90Q91.46-2.04 91.16-2.12Q90.85-2.20 90.48-2.20L90.48-2.20Q89.76-2.20 89.33-1.92Q88.90-1.65 88.90-1.12L88.90-1.12Q88.90-0.87 88.99-0.70Q89.08-0.53 89.29-0.39Q89.49-0.25 89.81-0.15Q90.14-0.04 90.60 0.07L90.60 0.07Q91.37 0.27 92.00 0.49Q92.63 0.71 93.07 1.04Q93.50 1.36 93.74 1.84Q93.97 2.31 93.97 3.01Z" opacity="1" fill="#00377D"/></g></svg>